<?xml version="1.0" standalone="no"?>
<!DOCTYPE svg PUBLIC "-//W3C//DTD SVG 20010904//EN"
 "http://www.w3.org/TR/2001/REC-SVG-20010904/DTD/svg10.dtd">
<svg version="1.0" xmlns="http://www.w3.org/2000/svg"
 width="224.000000pt" height="224.000000pt" viewBox="0 0 224.000000 224.000000"
 preserveAspectRatio="xMidYMid meet">
<metadata>
Created by potrace 1.14, written by Peter Selinger 2001-2017
</metadata>
<g transform="translate(0.000000,224.000000) scale(0.100000,-0.100000)"
fill="#000000" stroke="none">
<path d="M662 2215 c4 -41 59 -86 112 -92 37 -5 47 -2 52 12 17 43 -59 105
-128 105 -34 0 -38 -2 -36 -25z"/>
<path d="M1484 2224 c-35 -17 -68 -68 -60 -91 5 -12 16 -14 54 -9 37 4 54 13
80 41 17 19 32 44 32 55 0 17 -7 20 -37 20 -21 0 -52 -7 -69 -16z"/>
<path d="M1043 2206 c-46 -21 -80 -124 -54 -165 7 -11 14 -10 40 5 38 22 61
69 59 118 -2 43 -15 56 -45 42z"/>
<path d="M1169 2199 c-25 -47 8 -135 60 -159 30 -14 41 0 41 54 0 41 -33 96
-70 116 -15 8 -21 6 -31 -11z"/>
<path d="M906 2067 c-17 -12 -17 -15 2 -47 27 -47 60 -161 68 -239 6 -59 5
-62 -12 -53 -11 6 -29 20 -41 31 -12 12 -25 21 -28 21 -3 0 -23 12 -45 26 -40
27 -70 27 -70 0 0 -8 26 -29 58 -47 74 -42 187 -158 232 -237 46 -82 64 -82
110 0 45 80 159 196 233 238 56 32 71 55 42 66 -15 6 -143 -69 -158 -93 -4 -7
-13 -13 -19 -13 -22 0 11 184 49 268 9 20 20 45 25 54 5 13 1 21 -12 28 -17 9
-22 4 -43 -37 -45 -88 -67 -183 -71 -293 -2 -68 -5 -79 -37 -120 -19 -25 -41
-56 -50 -70 l-16 -24 -28 44 c-15 25 -36 55 -47 67 -15 16 -21 39 -23 95 -5
101 -29 209 -64 285 -17 34 -32 63 -34 63 -2 0 -11 -6 -21 -13z"/>
<path d="M604 1985 c-28 -43 -19 -109 24 -157 21 -25 29 -23 47 12 26 51 13
120 -31 153 -23 17 -24 17 -40 -8z"/>
<path d="M767 2003 c-2 -5 0 -22 5 -40 11 -41 66 -84 114 -88 l36 -4 -5 36
c-7 40 -29 68 -69 89 -29 15 -74 19 -81 7z"/>
<path d="M1393 1991 c-34 -21 -63 -67 -63 -100 0 -17 5 -19 38 -15 60 7 104
49 114 109 4 28 -47 32 -89 6z"/>
<path d="M1608 1990 c-46 -36 -61 -126 -27 -166 26 -31 81 38 81 101 0 18 -6
44 -14 59 l-14 27 -26 -21z"/>
<path d="M333 1942 c-27 -4 -28 -13 -7 -58 21 -43 61 -72 108 -78 33 -4 36 -2
36 19 0 38 -19 70 -53 91 -43 26 -58 31 -84 26z"/>
<path d="M1855 1930 c-29 -11 -60 -50 -73 -87 -9 -29 -9 -33 6 -34 76 -5 122
29 146 109 7 20 4 22 -26 21 -18 0 -42 -4 -53 -9z"/>
<path d="M1098 1783 c-28 -49 -27 -109 3 -147 20 -25 22 -26 40 -10 20 18 34
66 30 104 -4 35 -29 80 -44 80 -7 0 -20 -12 -29 -27z"/>
<path d="M383 1776 c-36 -7 -43 -13 -43 -32 0 -19 4 -22 23 -17 12 3 61 7 108
9 121 5 257 -34 338 -97 20 -16 21 -20 7 -25 -9 -4 -19 -4 -22 -1 -4 3 -16 2
-28 -3 -13 -4 -40 -11 -62 -14 -44 -7 -173 -67 -213 -100 -48 -39 -131 -129
-131 -142 0 -6 7 -15 15 -18 11 -4 40 18 88 67 101 102 207 150 358 163 l65 6
32 -36 c51 -58 127 -225 110 -241 -3 -3 -27 -1 -54 5 -77 17 -246 12 -267 -9
-15 -15 4 -41 27 -36 74 19 272 3 298 -23 5 -5 10 -27 10 -48 2 -141 -64 -295
-168 -394 -39 -37 -49 -52 -42 -64 5 -9 14 -16 21 -16 10 0 93 82 122 121 43
57 89 161 103 234 8 42 8 203 -1 248 -10 55 -53 155 -82 193 -14 18 -25 37
-25 42 0 19 -130 129 -187 160 -129 68 -280 94 -400 68z"/>
<path d="M1650 1774 c-228 -43 -414 -219 -473 -445 -18 -71 -15 -245 7 -311
34 -106 97 -210 165 -271 45 -41 53 -43 70 -23 9 11 4 20 -21 42 -66 58 -134
156 -157 226 -23 68 -38 166 -33 214 3 29 7 32 60 45 49 12 170 15 252 7 19
-2 25 2 25 17 0 14 -10 21 -40 28 -43 9 -225 3 -264 -9 -23 -7 -24 -6 -17 27
10 52 69 171 107 213 l33 38 72 -5 c142 -11 279 -78 373 -183 34 -39 53 -53
64 -48 21 8 21 14 2 41 -87 124 -269 225 -422 235 -18 1 -33 5 -33 8 0 10 65
49 124 75 82 36 195 52 286 39 65 -9 72 -8 81 8 8 15 5 20 -18 29 -41 16 -169
17 -243 3z"/>
<path d="M537 1680 c-15 -3 -41 -18 -59 -35 l-31 -30 43 -18 c29 -13 53 -17
76 -12 42 7 89 46 82 67 -8 19 -74 36 -111 28z"/>
<path d="M1618 1666 c-10 -7 -18 -18 -18 -24 0 -16 50 -48 86 -56 35 -8 104
15 104 34 0 47 -127 81 -172 46z"/>
<path d="M273 1541 c-60 -28 -53 -72 10 -62 4 0 7 -3 7 -7 0 -14 69 -13 105 2
42 18 45 37 9 61 -40 26 -84 28 -131 6z"/>
<path d="M1858 1539 c-47 -24 -48 -41 -4 -64 39 -21 102 -17 142 10 25 16 25
17 8 36 -15 17 -73 40 -99 39 -5 -1 -27 -10 -47 -21z"/>
<path d="M795 1520 c-42 -17 -97 -91 -81 -108 9 -9 71 -5 98 6 30 12 68 65 68
95 0 13 -8 17 -32 16 -18 0 -42 -4 -53 -9z"/>
<path d="M1375 1493 c9 -21 25 -46 36 -55 26 -22 82 -38 108 -31 19 5 19 7 6
39 -25 60 -61 84 -124 84 l-41 0 15 -37z"/>
<path d="M527 1400 c-35 -41 -44 -93 -23 -136 19 -41 25 -42 57 -8 20 21 24
36 24 85 0 40 -5 64 -16 75 -15 14 -18 13 -42 -16z"/>
<path d="M1672 1395 c-18 -40 -14 -89 11 -125 31 -47 45 -48 62 -5 19 44 11
101 -18 133 -27 29 -41 28 -55 -3z"/>
<path d="M915 1198 c-35 -10 -55 -24 -78 -58 -37 -53 -10 -78 58 -54 47 16 72
40 84 81 8 27 7 32 -12 35 -12 2 -36 1 -52 -4z"/>
<path d="M1276 1196 c-14 -10 -14 -15 1 -44 18 -37 45 -59 89 -70 38 -11 64
-4 64 16 0 20 -40 80 -60 88 -39 17 -80 21 -94 10z"/>
<path d="M665 568 c-7 -20 0 -271 8 -284 4 -7 19 -15 33 -18 35 -9 49 12 26
37 -14 16 -17 41 -17 146 -1 122 -2 126 -23 129 -12 2 -24 -3 -27 -10z"/>
<path d="M1274 555 c-7 -18 12 -45 32 -45 15 0 28 35 19 50 -9 15 -45 12 -51
-5z"/>
<path d="M803 539 c-22 -8 -22 -12 -20 -125 3 -110 4 -118 27 -136 19 -15 34
-19 63 -15 46 6 49 9 41 31 -4 10 -14 15 -29 12 -38 -7 -49 8 -51 73 l-2 61
39 0 c32 0 39 3 39 20 0 17 -7 20 -39 20 -36 0 -39 2 -37 24 4 35 -5 45 -31
35z"/>
<path d="M1389 528 c-6 -59 -3 -198 4 -221 11 -32 34 -47 74 -47 38 0 55 13
47 34 -4 11 -13 15 -25 11 -32 -10 -55 25 -54 81 1 51 -2 49 58 53 10 1 17 9
17 20 0 16 -8 20 -37 23 -33 3 -38 6 -38 28 0 18 -6 26 -22 28 -14 2 -24 -2
-24 -10z"/>
<path d="M468 482 c-21 -4 -20 -43 2 -41 42 4 71 -3 77 -16 8 -22 1 -26 -44
-31 -38 -3 -73 -32 -73 -60 0 -50 37 -74 112 -74 58 0 65 10 63 100 -2 66 -6
86 -22 101 -18 19 -77 30 -115 21z m84 -151 c-3 -32 -6 -35 -37 -27 -52 13
-39 59 15 54 20 -2 24 -8 22 -27z"/>
<path d="M937 473 c-2 -5 9 -48 25 -98 44 -134 74 -146 103 -42 l18 62 20 -60
c40 -120 66 -96 127 116 9 29 8 30 -18 27 -23 -3 -28 -10 -42 -65 -8 -34 -18
-64 -22 -68 -3 -3 -14 25 -24 64 -14 55 -22 71 -37 71 -19 0 -19 1 -43 -85
l-17 -60 -13 30 c-7 17 -16 49 -20 73 -5 35 -10 42 -30 42 -12 0 -25 -3 -27
-7z"/>
<path d="M1275 370 c0 -61 -2 -115 -6 -121 -3 -6 -15 -12 -25 -13 -11 -2 -20
-12 -22 -24 -3 -19 2 -22 28 -22 19 0 40 9 53 22 21 21 23 32 22 143 l0 120
-25 3 -26 3 1 -111z"/>
<path d="M1536 458 c4 -13 20 -54 36 -93 42 -100 44 -111 18 -125 -12 -6 -31
-9 -42 -7 -15 4 -19 1 -16 -16 6 -46 78 -33 112 21 22 33 86 208 86 233 0 5
-10 9 -23 9 -20 0 -26 -10 -46 -77 l-23 -78 -24 60 c-12 33 -23 68 -23 78 -1
12 -9 17 -32 17 -27 0 -30 -3 -23 -22z"/>
</g>
</svg>
